Coordinates
version=1
nRows=19
nColumns=63
inDegrees=yes

Units are S.I. units (second, meters, Newtons, ...)
If the header above contains a line with 'inDegrees', this indicates whether rotational values are in degrees (yes) or radians (no).

endheader
time	pelvis_tilt	pelvis_list	pelvis_rotation	pelvis_tx	pelvis_ty	pelvis_tz	hip_flexion_r	hip_adduction_r	hip_rotation_r	knee_angle_r	knee_angle_r_beta	ankle_angle_r	subtalar_angle_r	mtp_angle_r	hip_flexion_l	hip_adduction_l	hip_rotation_l	knee_angle_l	knee_angle_l_beta	ankle_angle_l	subtalar_angle_l	mtp_angle_l	L5_S1_Flex_Ext	L5_S1_Lat_Bending	L5_S1_axial_rotation	L4_L5_Flex_Ext	L4_L5_Lat_Bending	L4_L5_axial_rotation	L3_L4_Flex_Ext	L3_L4_Lat_Bending	L3_L4_axial_rotation	L2_L3_Flex_Ext	L2_L3_Lat_Bending	L2_L3_axial_rotation	L1_L2_Flex_Ext	L1_L2_Lat_Bending	L1_L2_axial_rotation	L1_T12_Flex_Ext	L1_T12_Lat_Bending	L1_T12_axial_rotation	Abs_r3	Abs_r2	Abs_r1	Abs_t1	Abs_t2	neck_flexion	neck_bending	neck_rotation	arm_flex_r	arm_add_r	arm_rot_r	elbow_flex_r	pro_sup_r	wrist_flex_r	wrist_dev_r	arm_flex_l	arm_add_l	arm_rot_l	elbow_flex_l	pro_sup_l	wrist_flex_l	wrist_dev_l
6.020833	-6.577923	10.875091	83.881560	0.199355	0.940845	0.776395	-8.754530	-5.809844	-13.468488	12.917666	0.225456	20.916553	15.109128	0.000000	-9.408131	4.438198	-8.164488	9.375469	0.163633	22.638488	6.703379	0.000000	-1.324288	-0.326627	0.050882	-2.459334	-0.434414	0.054062	-2.175672	-0.794161	0.054062	-1.513528	-0.794161	0.044521	-1.229733	-0.666058	0.041341	-0.756698	-0.505945	0.038161	-9.459253	-3.694870	0.282988	0.000000	0.000000	-15.326982	-0.648034	-2.746878	60.193026	5.439894	155.568868	0.068002	0.835406	-69.793144	-24.100038	57.404283	14.649171	167.621170	0.081262	0.803867	-69.835006	-24.091615
6.041667	-6.593295	10.792386	83.826893	0.199501	0.940593	0.776216	-8.655310	-5.825426	-13.306423	12.930303	0.225676	20.953284	15.030988	0.000000	-9.331393	4.476311	-7.683928	9.382109	0.163749	22.614143	6.139847	0.000000	-1.316416	-0.330829	0.059502	-2.444717	-0.440002	0.063221	-2.162740	-0.804377	0.063221	-1.504532	-0.804377	0.052064	-1.222424	-0.674626	0.048345	-0.752200	-0.512453	0.044626	-9.403029	-3.742399	0.330931	0.000000	0.000000	-15.161672	-0.593797	-2.783801	60.147866	5.470593	155.239101	0.067599	0.838295	-69.791394	-24.093112	57.300190	14.864787	167.000074	0.081967	0.783691	-69.832947	-24.020217
6.062500	-6.618214	10.725365	83.824501	0.199650	0.940322	0.775990	-8.551017	-5.834197	-13.086552	12.998937	0.226874	21.049490	14.831257	0.000000	-9.251322	4.508363	-7.299929	9.442577	0.164804	22.623390	5.661318	0.000000	-1.310268	-0.338410	0.038026	-2.433299	-0.450086	0.040402	-2.152639	-0.822811	0.040402	-1.497505	-0.822811	0.033272	-1.216715	-0.690086	0.030896	-0.748687	-0.524198	0.028519	-9.359113	-3.828166	0.211487	0.000000	0.000000	-15.005817	-0.550395	-2.727936	60.077397	5.550654	155.078941	0.067142	0.838420	-69.790351	-24.091088	57.213522	14.953784	166.168250	0.082699	0.757636	-69.830529	-23.947618
6.083333	-6.643417	10.679622	83.869839	0.199781	0.940078	0.775789	-8.446728	-5.829570	-12.827546	13.114481	0.228891	21.190225	14.541503	0.000000	-9.166401	4.527071	-7.023398	9.559102	0.166838	22.669162	5.278951	0.000000	-1.306028	-0.347704	-0.006175	-2.425425	-0.462446	-0.006561	-2.145674	-0.845408	-0.006561	-1.492659	-0.845408	-0.005403	-1.212778	-0.709038	-0.005017	-0.746264	-0.538594	-0.004631	-9.328828	-3.933298	-0.034345	0.000000	0.000000	-14.889845	-0.510801	-2.610414	59.982700	5.692106	155.100805	0.066615	0.840848	-69.790183	-24.096994	57.115331	14.958219	165.276675	0.083169	0.728927	-69.828532	-23.886003
6.104167	-6.659899	10.666242	83.953223	0.199849	0.939907	0.775688	-8.348359	-5.807060	-12.525872	13.277440	0.231735	21.359441	14.162298	0.000000	-9.087632	4.533545	-6.821229	9.717022	0.169594	22.741204	4.953283	0.000000	-1.304777	-0.356424	-0.058714	-2.423101	-0.474044	-0.062384	-2.143618	-0.866609	-0.062384	-1.491229	-0.866609	-0.051375	-1.211616	-0.726820	-0.047705	-0.745549	-0.552101	-0.044036	-9.319889	-4.031938	-0.326551	0.000000	0.000000	-14.842258	-0.468223	-2.493883	59.889360	5.873921	155.273841	0.066052	0.847789	-69.791187	-24.110641	56.996776	14.932250	164.487526	0.083178	0.699126	-69.827653	-23.839521
6.125000	-6.655372	10.699108	84.052876	0.199810	0.939817	0.775747	-8.264579	-5.764403	-12.187750	13.486311	0.235381	21.551417	13.725317	0.000000	-9.019565	4.524894	-6.686876	9.928170	0.173279	22.846672	4.653607	0.000000	-1.308873	-0.361891	-0.101781	-2.430707	-0.481315	-0.108142	-2.150347	-0.879901	-0.108142	-1.495910	-0.879901	-0.089058	-1.215419	-0.737967	-0.082697	-0.747890	-0.560569	-0.076335	-9.349146	-4.093780	-0.566073	0.000000	0.000000	-14.874606	-0.411910	-2.441436	59.863811	6.046546	155.612051	0.065505	0.850848	-69.793488	-24.129705	56.908104	14.936808	164.054315	0.082574	0.663332	-69.828270	-23.812668
6.145833	-6.608421	10.773503	84.178311	0.199589	0.939747	0.775955	-8.201155	-5.677584	-11.819690	13.724012	0.239529	21.753840	13.224629	0.000000	-8.960681	4.477650	-6.613941	10.189514	0.177841	23.016547	4.415644	0.000000	-1.318396	-0.361067	-0.133857	-2.448393	-0.480219	-0.142223	-2.165992	-0.877898	-0.142223	-1.506794	-0.877898	-0.117125	-1.224262	-0.736288	-0.108759	-0.753331	-0.559293	-0.100393	-9.417168	-4.084462	-0.744474	0.000000	0.000000	-14.938730	-0.317117	-2.480174	59.974009	6.195029	156.027260	0.065045	0.861939	-69.797015	-24.152113	56.926252	15.029236	163.938760	0.081476	0.659969	-69.830089	-23.814445
6.166667	-6.557309	10.910986	84.291787	0.199313	0.939614	0.776326	-8.166777	-5.596247	-11.418970	14.003564	0.244408	22.005254	12.700094	0.000000	-8.928828	4.435484	-6.628515	10.507932	0.183398	23.247374	4.205724	0.000000	-1.336432	-0.360324	-0.154283	-2.481888	-0.479231	-0.163926	-2.195625	-0.876092	-0.163926	-1.527408	-0.876092	-0.134998	-1.241011	-0.734773	-0.125355	-0.763637	-0.558142	-0.115713	-9.546002	-4.076058	-0.858078	0.000000	0.000000	-15.024492	-0.201365	-2.572385	60.280437	6.345916	156.512402	0.064627	0.871325	-69.801936	-24.174787	57.200894	15.153511	164.455049	0.079874	0.675363	-69.832816	-23.840228
6.187500	-6.517150	11.110411	84.393348	0.199060	0.939353	0.776841	-8.167626	-5.530832	-10.985636	14.312751	0.249805	22.302284	12.143545	0.000000	-8.930571	4.408275	-6.744965	10.869245	0.189704	23.541511	4.038995	0.000000	-1.362746	-0.362865	-0.177621	-2.530756	-0.482610	-0.188722	-2.238856	-0.882269	-0.188722	-1.557483	-0.882269	-0.155418	-1.265446	-0.739954	-0.144317	-0.778673	-0.562077	-0.133216	-9.733959	-4.104798	-0.987873	0.000000	0.000000	-15.095153	-0.066644	-2.627657	60.821462	6.546801	157.032452	0.064182	0.877605	-69.809068	-24.194919	57.803807	15.231014	165.372355	0.077967	0.706012	-69.836180	-23.886686
6.208333	-6.488425	11.376041	84.464940	0.198892	0.938915	0.777516	-8.210916	-5.480488	-10.495807	14.644496	0.255595	22.631773	11.517439	0.000000	-8.971536	4.391925	-6.991826	11.277689	0.196833	23.920163	3.962730	0.000000	-1.399369	-0.369658	-0.207407	-2.598768	-0.491645	-0.220370	-2.299023	-0.898786	-0.220370	-1.599339	-0.898786	-0.181481	-1.299454	-0.753806	-0.168518	-0.799600	-0.572600	-0.155556	-9.995554	-4.181641	-1.153537	0.000000	0.000000	-15.105998	0.094851	-2.608582	61.656055	6.792201	157.645332	0.063591	0.878731	-69.820916	-24.216834	58.802234	15.199958	166.579366	0.075821	0.747220	-69.840202	-23.943462
6.229167	-6.468849	11.698843	84.476115	0.198788	0.938284	0.778321	-8.291076	-5.461192	-9.991141	14.994114	0.261697	22.993567	10.920027	0.000000	-9.062367	4.400795	-7.310686	11.695206	0.204120	24.350936	3.876243	0.000000	-1.445753	-0.379912	-0.231198	-2.684908	-0.505283	-0.245648	-2.375228	-0.923717	-0.245648	-1.652351	-0.923717	-0.202298	-1.342526	-0.774716	-0.187849	-0.826103	-0.588483	-0.173399	-10.326870	-4.297637	-1.285855	0.000000	0.000000	-15.038477	0.292284	-2.553857	62.820636	7.021349	158.266597	0.062733	0.877360	-69.855143	-24.248265	60.207182	15.118040	167.923964	0.073433	0.795378	-69.845255	-24.012785
6.250000	-6.434231	12.042210	84.433404	0.198681	0.937477	0.779182	-8.391760	-5.445834	-9.513872	15.336702	0.267676	23.359213	10.388503	0.000000	-9.172206	4.399301	-7.734953	12.125356	0.211627	24.844819	3.879523	0.000000	-1.499350	-0.390617	-0.223876	-2.784443	-0.519521	-0.237868	-2.463282	-0.949747	-0.237868	-1.713607	-0.949747	-0.195891	-1.392297	-0.796547	-0.181899	-0.856729	-0.605066	-0.167907	-10.709708	-4.418740	-1.245130	0.000000	0.000000	-14.853422	0.559124	-2.653261	64.304820	7.049403	159.054615	0.061590	0.894543	-70.574243	-24.275661	62.005838	15.167143	169.513840	0.070508	0.853206	-69.852218	-24.093514
6.270833	-6.387084	12.359966	84.346716	0.198625	0.936567	0.779966	-8.493441	-5.430125	-9.123319	15.634625	0.272876	23.705231	10.002667	0.000000	-9.276480	4.375021	-8.297782	12.533866	0.218757	25.377710	4.089233	0.000000	-1.553894	-0.403773	-0.166471	-2.885736	-0.537018	-0.176875	-2.552892	-0.981733	-0.176875	-1.775945	-0.981733	-0.145662	-1.442946	-0.823374	-0.135257	-0.887895	-0.625444	-0.124853	-11.099307	-4.567560	-0.925859	0.000000	0.000000	-14.566679	0.932755	-3.089917	66.002072	6.782780	161.590266	0.052860	0.976820	-74.501912	-24.297165	64.120956	15.499709	171.373814	0.066534	0.904727	-69.864081	-24.187905
6.291667	-6.287754	12.642652	84.182151	0.198482	0.935529	0.780593	-8.591861	-5.390745	-8.840053	15.883988	0.277228	24.041902	9.840979	0.000000	-9.380568	4.320557	-8.803457	12.902311	0.225188	25.922817	4.212599	0.000000	-1.607661	-0.408554	-0.063094	-2.985587	-0.543377	-0.067038	-2.641226	-0.993358	-0.067038	-1.837396	-0.993358	-0.055207	-1.492874	-0.833123	-0.051264	-0.918617	-0.632850	-0.047321	-11.483362	-4.621645	-0.350911	0.000000	0.000000	-14.198632	1.310396	-3.675120	68.060041	6.233946	162.477908	0.048515	1.022215	-75.142759	-24.348271	66.482081	16.071902	173.278035	0.060050	0.925821	-69.922189	-24.304235
6.312500	-6.134185	12.823765	83.984296	0.198240	0.934436	0.780834	-8.656335	-5.302856	-8.697028	16.041240	0.279972	24.332361	9.894144	0.000000	-9.444614	4.228443	-9.059477	13.186290	0.230144	26.426668	4.095131	0.000000	-1.651504	-0.408211	0.108950	-3.067009	-0.542921	0.115760	-2.713256	-0.992525	0.115760	-1.887504	-0.992525	0.095331	-1.533587	-0.832425	0.088522	-0.943670	-0.632319	0.081713	-11.796530	-4.617769	0.605948	0.000000	0.000000	-13.833565	1.727158	-4.664250	70.333489	5.236594	162.627000	0.039170	1.049638	-74.071856	-24.639277	69.606375	17.999427	182.938445	-2.786371	-1.529663	-73.534405	-25.273210
6.333333	-6.055278	12.685613	83.812154	0.198274	0.933026	0.779978	-8.530286	-5.247011	-8.730939	16.041264	0.279973	24.606182	10.159707	0.000000	-9.304195	4.177617	-9.139443	13.317914	0.232441	26.835644	3.949000	0.000000	-1.654972	-0.408371	0.271812	-3.073448	-0.543133	0.288801	-2.718953	-0.992913	0.288801	-1.891467	-0.992913	0.237836	-1.536807	-0.832750	0.220848	-0.945651	-0.632566	0.203859	-11.821297	-4.619573	1.511739	0.000000	0.000000	-13.010500	2.090797	-5.235622	72.755850	4.266419	161.963764	0.031579	1.074226	-71.599220	-25.134883	72.170952	19.087066	187.968938	-3.383997	-1.489639	-75.030062	-25.834662
6.354167	-6.060585	12.198231	83.671339	0.198656	0.931297	0.778000	-8.187956	-5.224293	-8.943237	15.874324	0.277059	24.858076	10.640362	0.000000	-8.934317	4.170934	-9.013000	13.288333	0.231925	27.120063	3.730700	0.000000	-1.617563	-0.417884	0.436413	-3.003976	-0.555785	0.463689	-2.657494	-1.016043	0.463689	-1.848713	-1.016043	0.381861	-1.502069	-0.852149	0.354586	-0.924275	-0.647302	0.327310	-11.554089	-4.727185	2.427198	0.000000	0.000000	-11.657541	2.388033	-5.912369	75.246398	3.221038	160.722919	0.014028	1.102868	-67.988056	-25.496350	74.475470	19.701696	189.306704	-2.564264	0.059602	-74.749343	-26.086739
6.375000	-6.170921	11.328235	83.575437	0.199405	0.929234	0.774987	-7.574194	-5.246378	-9.315925	15.573252	0.271805	25.083373	11.276566	0.000000	-8.281164	4.215661	-8.692314	13.122100	0.229024	27.270587	3.428750	0.000000	-1.542169	-0.444078	0.582184	-2.863962	-0.590624	0.618570	-2.533629	-1.079732	0.618570	-1.762545	-1.079732	0.509411	-1.432058	-0.905564	0.473024	-0.881195	-0.687877	0.436638	-11.015557	-5.023501	3.237933	0.000000	0.000000	-9.700747	2.517171	-7.256368	77.742162	2.162278	159.149049	-0.060904	1.131443	-63.418279	-25.558699	76.683645	20.014157	187.636758	-0.870630	2.111574	-72.929589	-26.015872
6.395833	-6.386439	10.063056	83.532590	0.200551	0.926859	0.770893	-6.686531	-5.303512	-9.831764	15.126008	0.263999	25.256336	12.033937	0.000000	-7.354373	4.305055	-8.211608	12.776559	0.222993	27.267407	3.078947	0.000000	-1.425903	-0.486391	0.682822	-2.648045	-0.646901	0.725499	-2.342617	-1.182612	0.725499	-1.629665	-1.182612	0.597470	-1.324094	-0.991849	0.554793	-0.814761	-0.753420	0.512117	-10.185086	-5.502158	3.797654	0.000000	0.000000	-7.132910	2.432750	-9.244590	80.133706	1.298191	157.784496	-0.376244	1.115134	-58.055690	-25.227063	78.792005	20.009611	183.426985	1.373876	4.130030	-69.792811	-25.552613
